<svg width="24" height="24" viewBox="0 0 24 24" fill="none" xmlns="http://www.w3.org/2000/svg">
<g clip-path="url(#clip0_112_3073)">
<path d="M22.4712 16.5V13.5H19.5043L18.0062 12L11.9989 18L13.4828 19.5C13.4828 21.0795 13.4828 22.4408 13.4828 24C14.2318 24 15.7299 24 16.4789 24C16.4789 22.5 16.4789 21.2505 16.4789 19.5H19.4751V24C20.2241 24 21.7222 24 22.4712 24C22.4712 22.5 22.4712 21.2505 22.4712 19.5L23.9693 18L22.4712 16.5Z" fill="#E8B4B8"/>
<path d="M9.00501 0H9.00351H9.00276C4.26058 0.0135 0.698149 3.567 0.122886 7.67775C0.0464841 8.22 4.35981e-05 8.71875 4.35981e-05 9.2085C-0.00519968 10.7078 0.462202 12.0188 1.5588 13.956C2.65914 15.909 4.42238 18.5925 7.18334 23.0452L7.20057 23.073L7.22079 23.1C7.66123 23.6895 8.33536 24 8.99677 24H9.00426H9.01175C9.67315 24 10.3473 23.6895 10.787 23.1L10.8064 23.0737L10.8237 23.046C11.4274 22.0725 11.9832 21.183 12.4955 20.367L11.2274 19.569C10.7233 20.3722 10.175 21.249 9.58102 22.206C9.43121 22.4002 9.22522 22.4925 9.00351 22.4985C8.78179 22.4925 8.57581 22.4002 8.426 22.206C5.67627 17.7735 3.91303 15.0832 2.86437 13.2195C1.80748 11.3325 1.50337 10.3815 1.49812 9.2085C1.49812 8.8155 1.53558 8.3865 1.60599 7.88625C2.08462 4.48575 5.04783 1.503 9.00351 1.5C12.9592 1.503 15.9224 4.48575 16.4003 7.88625C16.4707 8.3865 16.5081 8.8155 16.5081 9.2085C16.5074 9.738 16.443 10.206 16.2842 10.7408L17.7193 11.1713C17.9193 10.5068 18.007 9.867 18.0062 9.20925C18.0062 8.7195 17.9598 8.22075 17.8834 7.6785C17.3081 3.567 13.7457 0.0135 9.00501 0Z" fill="#E8B4B8"/>
<path d="M6.02155 9C6.02304 10.656 7.36383 11.9985 9.01771 12C10.6716 11.9985 12.0124 10.656 12.0139 9C12.0124 7.344 10.6716 6.0015 9.01771 6C7.36383 6.0015 6.02304 7.344 6.02155 9ZM10.5158 9C10.5143 9.825 9.84165 10.4985 9.01771 10.5C8.19376 10.4985 7.52112 9.825 7.51963 9C7.52112 8.175 8.19376 7.5015 9.01771 7.5C9.8424 7.5015 10.515 8.175 10.5158 9Z" fill="#E8B4B8"/>
</g>
<defs>
<clipPath id="clip0_112_3073">
<rect width="24" height="24" fill="white"/>
</clipPath>
</defs>
</svg>
