<svg width="24" height="24" viewBox="0 0 24 24" fill="none" xmlns="http://www.w3.org/2000/svg">
<g clip-path="url(#clip0_112_3057)">
<path d="M22.2451 17.2122C20.5727 16.753 17.7108 15.9666 17.7108 15.9666V5.99207L12.5746 2.87988V0H11.4528V2.79387L6.28799 6.19498V15.9536C6.28799 15.9536 3.63861 16.7789 1.94851 17.3056C0.671474 17.6623 0.629062 18.2629 0.575562 18.9271V22.7451C0.789788 23.4695 1.22496 23.9381 1.84095 23.9637C3.51272 23.9736 6.43072 23.9925 6.43072 23.9925L17.5681 24C17.5681 24 20.1352 23.9814 21.8698 23.9686C22.6916 23.9366 23.459 23.6183 23.4232 22.352V18.7675C23.441 17.8038 22.8162 17.412 22.2451 17.2122ZM2.28717 22.1741L1.14477 22.5128V21.157L2.28721 20.782L2.28717 22.1741ZM2.28717 19.8907L1.14473 20.2293V18.8738L2.28717 18.4992V19.8907ZM4.00083 21.6026L2.85839 21.9422V20.5861L4.00083 20.2119V21.6026ZM4.00083 19.3201L2.85839 19.6587V18.303L4.00083 17.9288V19.3201ZM5.71446 21.0326L4.57202 21.3712V20.0157L5.71446 19.6416V21.0326ZM5.71446 18.7491L4.57202 19.0878V17.7323L5.71446 17.3576V18.7491ZM11.4089 17.0544L6.8569 20.0867V18.5166L11.4089 15.4853V17.0544H11.4089ZM11.4089 14.2004L6.8569 17.2329V15.6628L11.4089 12.6315V14.2004H11.4089ZM11.4089 11.3469L6.8569 14.3786V12.8098L11.4089 9.7775V11.3469H11.4089ZM11.4089 8.52836L6.8569 11.5612V9.99143L11.4089 6.96008V8.52836H11.4089ZM11.4089 5.67491L6.8569 8.70656V7.13768L11.4089 4.10517V5.67491H11.4089ZM16.5731 22.8061H12.5539L12.5438 4.5511L16.5731 6.91561V22.8061ZM22.2799 22.9235L18.2992 21.6925V20.1223L22.2799 21.3532V22.9235ZM22.2799 20.3547L18.2992 19.1239V17.5544L22.2799 18.7852V20.3547Z" fill="#E8B4B8"/>
</g>
<defs>
<clipPath id="clip0_112_3057">
<rect width="24" height="24" fill="white"/>
</clipPath>
</defs>
</svg>
