<svg width="24" height="24" viewBox="0 0 24 24" fill="none" xmlns="http://www.w3.org/2000/svg">
<path d="M21.6797 21.9471L20.0888 23.5379C19.8046 23.8206 18.9725 23.9993 18.9476 23.9993C13.9114 24.0418 9.0627 22.0644 5.49943 18.5004C1.92594 14.9278 -0.0538263 10.0602 0.00111368 5.00961C0.00111368 5.00666 0.183513 4.19811 0.466979 3.91687L2.05785 2.32462C2.64161 1.74164 3.75925 1.47797 4.54224 1.73868L4.87769 1.85146C5.66068 2.11218 6.47878 2.97641 6.69559 3.77179L7.49686 6.71164C7.71437 7.50851 7.42214 8.64223 6.83913 9.22521L5.77563 10.2887C6.81864 14.1543 9.85014 17.1849 13.7138 18.2294L14.7773 17.1659C15.3603 16.5828 16.497 16.2914 17.2939 16.5082L20.234 17.3109C21.0279 17.5262 21.8922 18.3435 22.1544 19.1272L22.2658 19.4626C22.5263 20.2465 22.2627 21.3641 21.6797 21.9471ZM13.4999 11.9996H14.9999C14.9999 10.3429 13.6566 8.99974 11.9998 8.99974V10.4997C12.8267 10.4997 13.4999 11.1735 13.4999 11.9996ZM19.4999 11.9996C19.4999 7.85717 16.1425 4.49985 11.9998 4.49985V5.99984C15.3089 5.99984 17.9999 8.69215 17.9999 11.9996H19.4999ZM11.9998 0V1.49995C17.789 1.49995 22.5 6.21073 22.5 11.9996H24C24 5.37289 18.6269 0 11.9998 0Z" fill="#E8B4B8"/>
</svg>
