<svg width="40" height="40" viewBox="0 0 40 40" fill="none" xmlns="http://www.w3.org/2000/svg">
<g clip-path="url(#clip0_154_249)">
<path d="M39.8413 20C39.8413 30.9573 30.9573 39.8412 20 39.8412C9.04263 39.8412 0.158691 30.9573 0.158691 20C0.158691 9.04262 9.04263 0.158691 20 0.158691C30.9573 0.158691 39.8413 9.04262 39.8413 20Z" fill="#E8B4B8"/>
<path d="M7.65184 19.7192C14.5864 16.6686 23.5596 12.9493 24.7987 12.4344C28.0477 11.0872 29.0447 11.3452 28.5477 14.3293C28.1905 16.4741 27.1607 23.5743 26.3393 27.994C25.8522 30.615 24.759 30.9255 23.0407 29.7916C22.2143 29.246 18.0427 26.487 17.1369 25.8392C16.3106 25.2489 15.1707 24.5386 16.6002 23.1398C17.1092 22.6418 20.4435 19.4573 23.0417 16.9791C23.382 16.6537 22.9544 16.119 22.5616 16.3799C19.0596 18.7023 14.2044 21.9255 13.5864 22.3452C12.6528 22.9791 11.756 23.2698 10.1468 22.8074C8.93061 22.4583 7.74308 22.0416 7.2808 21.8829C5.50004 21.2717 5.92265 20.4801 7.65184 19.7192Z" fill="white"/>
</g>
<defs>
<clipPath id="clip0_154_249">
<rect width="40" height="40" fill="white"/>
</clipPath>
</defs>
</svg>
