<svg width="40" height="40" viewBox="0 0 40 40" fill="none" xmlns="http://www.w3.org/2000/svg">
<g clip-path="url(#clip0_154_243)">
<path d="M33 0H7C3.13401 0 0 3.13401 0 7V33C0 36.866 3.13401 40 7 40H33C36.866 40 40 36.866 40 33V7C40 3.13401 36.866 0 33 0Z" fill="#E8B4B8"/>
<path d="M6.01248 12.3563H10.8125C10.9129 12.3561 11.0109 12.3865 11.0935 12.4434C11.1761 12.5004 11.2394 12.5812 11.275 12.675C11.8062 14.0438 14.0125 19.4 16.0312 19.8375C17.5312 19.8375 17 12.7125 15.0937 12.7125C14.5937 12.7125 15.9812 11.825 16.075 11.7875C17.8465 11.3019 19.716 11.3019 21.4875 11.7875C22.4437 12.1875 22.6062 13.3063 22.6312 14.2563C22.6562 15.2063 21.5687 19.2563 23 19.6938C24.875 20.2688 27.2875 14.3875 27.85 12.9438C27.8865 12.8511 27.9503 12.7716 28.0329 12.7159C28.1154 12.6601 28.2129 12.6306 28.3125 12.6313H33.6562C33.7388 12.631 33.8202 12.6512 33.893 12.6901C33.9659 12.7289 34.028 12.7852 34.0739 12.8539C34.1196 12.9226 34.1477 13.0016 34.1555 13.0838C34.1634 13.166 34.1507 13.2489 34.1187 13.325C33.018 15.8361 31.6983 18.2454 30.175 20.525C30.0455 20.7131 29.9847 20.9401 30.0029 21.1678C30.0212 21.3954 30.1172 21.6099 30.275 21.775C31.875 23.4875 36.25 28.3375 33.75 28.3375H28.3562C28.2169 28.3379 28.0789 28.3085 27.9518 28.2514C27.8246 28.1943 27.7111 28.1107 27.6187 28.0063C26.7812 27.0813 24.3437 24.5063 23.2437 24.7125C22.3312 24.8813 22.2437 26.4313 22.2875 27.4438C22.3013 27.705 22.2122 27.9612 22.0392 28.1575C21.8663 28.3538 21.6234 28.4745 21.3625 28.4938C20.4062 28.55 19.1 28.575 18.9812 28.5688C15.1687 28.325 12.9125 25.7813 10.7562 22.9438C8.49755 19.9355 6.73567 16.5846 5.53748 13.0188C5.513 12.9433 5.50658 12.8631 5.51875 12.7848C5.53093 12.7064 5.56135 12.6319 5.60758 12.5675C5.6538 12.503 5.71453 12.4503 5.78486 12.4136C5.8552 12.3769 5.93317 12.3573 6.01248 12.3563Z" fill="white"/>
</g>
<defs>
<clipPath id="clip0_154_243">
<rect width="40" height="40" fill="white"/>
</clipPath>
</defs>
</svg>
