<svg width="48" height="48" viewBox="0 0 48 48" fill="none" xmlns="http://www.w3.org/2000/svg">
<path d="M19.92 38.88C28.2705 38.88 35.04 32.8627 35.04 25.44C35.04 18.0173 28.2705 12 19.92 12C11.5694 12 4.79999 18.0173 4.79999 25.44C4.79999 32.8627 11.5694 38.88 19.92 38.88Z" fill="white"/>
<path d="M21.1199 1.80005C10.5333 1.80005 1.91998 10.4133 1.91998 21C1.91998 24.3057 2.77397 27.5564 4.39344 30.4246L1.95087 39.1398C1.87073 39.4261 1.94837 39.7333 2.15539 39.9462C2.31484 40.1106 2.53188 40.1999 2.75477 40.1999C2.82155 40.1999 2.88916 40.1916 2.95511 40.1757L12.0509 37.9226C14.8282 39.4136 17.9561 40.1999 21.1199 40.1999C31.7066 40.1999 40.3199 31.5867 40.3199 21C40.3199 10.4133 31.7066 1.80005 21.1199 1.80005ZM30.7783 27.775C30.3676 28.912 28.3975 29.9496 27.4509 30.0891C26.6011 30.2134 25.5259 30.2669 24.3455 29.8962C23.6301 29.6709 22.7118 29.372 21.5356 28.8703C16.5913 26.7616 13.3623 21.8456 13.1152 21.5209C12.8689 21.1962 11.1025 18.8821 11.1025 16.4872C11.1025 14.0922 12.3756 12.9143 12.8281 12.4268C13.2805 11.9393 13.8139 11.8174 14.1428 11.8174C14.4717 11.8174 14.7998 11.8216 15.0878 11.8349C15.3908 11.8499 15.7974 11.7206 16.1972 12.6706C16.608 13.6456 17.5938 16.0406 17.7157 16.2851C17.8393 16.5289 17.921 16.8136 17.7574 17.1383C17.5938 17.463 17.512 17.6659 17.2649 17.9506C17.0178 18.2352 16.7473 18.585 16.5253 18.8037C16.2782 19.0466 16.0219 19.3096 16.3091 19.7971C16.5962 20.2846 17.5855 21.8782 19.0513 23.1687C20.9338 24.8266 22.5224 25.3408 23.0149 25.5846C23.5074 25.8284 23.7954 25.7875 24.0826 25.4627C24.3697 25.1372 25.3147 24.0411 25.6428 23.5544C25.9708 23.0677 26.2997 23.1479 26.7522 23.3107C27.2046 23.4726 29.628 24.6496 30.1205 24.8934C30.6131 25.1372 30.942 25.259 31.0655 25.4619C31.1891 25.6639 31.1891 26.6389 30.7783 27.775Z" fill="#E8B4B8"/>
</svg>
